<svg width="22" height="22" viewBox="0 0 22 22" fill="none" xmlns="http://www.w3.org/2000/svg">
<mask id="mask0_21_25114" style="mask-type:alpha" maskUnits="userSpaceOnUse" x="0" y="0" width="22" height="22">
<rect x="0.894531" y="0.894775" width="20.2105" height="20.2105" fill="#D9D9D9"/>
</mask>
<g mask="url(#mask0_21_25114)">
<path d="M17.2652 18.158C15.6782 18.158 14.0839 17.7891 12.4823 17.0512C10.8806 16.3132 9.40778 15.2722 8.06365 13.9281C6.72493 12.584 5.6866 11.1124 4.94868 9.51353C4.21076 7.91461 3.8418 6.32163 3.8418 4.7346C3.8418 4.48197 3.92601 4.2701 4.09443 4.09898C4.26285 3.92785 4.47338 3.84229 4.72601 3.84229H7.47253C7.68522 3.84229 7.87281 3.91165 8.03529 4.05039C8.19778 4.18913 8.30114 4.36052 8.3454 4.56456L8.82799 7.04226C8.86146 7.27223 8.85444 7.4698 8.80693 7.63498C8.75944 7.80016 8.67415 7.93889 8.55106 8.05117L6.60613 9.94429C6.91923 10.5176 7.27686 11.0598 7.67902 11.571C8.08118 12.0822 8.51653 12.5705 8.98508 13.0358C9.44717 13.4979 9.93841 13.927 10.4588 14.3233C10.9792 14.7195 11.5411 15.0882 12.1446 15.4293L14.0345 13.5233C14.1662 13.3861 14.3257 13.2901 14.513 13.235C14.7004 13.1799 14.895 13.1664 15.0969 13.1945L17.4353 13.6706C17.648 13.7268 17.8215 13.8353 17.9559 13.9961C18.0903 14.157 18.1575 14.3395 18.1575 14.5435V17.2738C18.1575 17.5265 18.072 17.737 17.9009 17.9054C17.7297 18.0738 17.5179 18.158 17.2652 18.158Z" fill="white"/>
</g>
</svg>
