<svg width="35" height="34" viewBox="0 0 35 34" fill="none" xmlns="http://www.w3.org/2000/svg">
<mask id="mask0_21_25051" style="mask-type:alpha" maskUnits="userSpaceOnUse" x="0" y="0" width="35" height="34">
<rect x="0.943359" width="34" height="34" fill="#D9D9D9"/>
</mask>
<g mask="url(#mask0_21_25051)">
<path d="M25.5 6.5C25.5 6.10218 25.342 5.72064 25.0607 5.43934C24.7794 5.15804 24.3978 5 24 5H9C8.20435 5 7.44129 5.31607 6.87868 5.87868C6.31607 6.44129 6 7.20435 6 8M6 8C6 8.79565 6.31607 9.55871 6.87868 10.1213C7.44129 10.6839 8.20435 11 9 11H27C27.3978 11 27.7794 11.158 28.0607 11.4393C28.342 11.7206 28.5 12.1022 28.5 12.5V17M6 8V26C6 26.7956 6.31607 27.5587 6.87868 28.1213C7.44129 28.6839 8.20435 29 9 29H27C27.3978 29 27.7794 28.842 28.0607 28.5607C28.342 28.2794 28.5 27.8978 28.5 27.5V23" stroke="#A3773B" stroke-width="2" stroke-linecap="round" stroke-linejoin="round"/>
<path d="M30 17V23H24C23.2044 23 22.4413 22.6839 21.8787 22.1213C21.3161 21.5587 21 20.7956 21 20C21 19.2044 21.3161 18.4413 21.8787 17.8787C22.4413 17.3161 23.2044 17 24 17H30Z" stroke="#A3773B" stroke-width="2" stroke-linecap="round" stroke-linejoin="round"/>
</g>
</svg>
